<svg xmlns="http://www.w3.org/2000/svg" xmlns:xlink="http://www.w3.org/1999/xlink" width="17" height="24" viewBox="0 0 17 24">
  <metadata><?xpacket begin="﻿" id="W5M0MpCehiHzreSzNTczkc9d"?>
<x:xmpmeta xmlns:x="adobe:ns:meta/" x:xmptk="Adobe XMP Core 5.6-c138 79.159824, 2016/09/14-01:09:01        ">
   <rdf:RDF xmlns:rdf="http://www.w3.org/1999/02/22-rdf-syntax-ns#">
      <rdf:Description rdf:about=""/>
   </rdf:RDF>
</x:xmpmeta>
                                                                                                    
                                                                                                    
                                                                                                    
                                                                                                    
                                                                                                    
                                                                                                    
                                                                                                    
                                                                                                    
                                                                                                    
                                                                                                    
                                                                                                    
                                                                                                    
                                                                                                    
                                                                                                    
                                                                                                    
                                                                                                    
                                                                                                    
                                                                                                    
                                                                                                    
                                                                                                    
                           
<?xpacket end="w"?></metadata>
<defs>
    <style>
      .cls-1 {
        fill: #d3d4ed;
        fill-rule: evenodd;
        filter: url(#filter);
      }
    </style>
    <filter id="filter" x="0.25" y="0.25" width="16.5" height="23.5" filterUnits="userSpaceOnUse">
      <feFlood result="flood" flood-color="#acb6ca"/>
      <feComposite result="composite" operator="in" in2="SourceGraphic"/>
      <feBlend result="blend" in2="SourceGraphic"/>
    </filter>
  </defs>
  <path id="Compound_Shape" data-name="Compound Shape" class="cls-1" d="M12.1,8.511L8.453,11.974a1.057,1.057,0,0,1-1.453,0L4.9,9.98a0.948,0.948,0,0,1,0-1.386,1.071,1.071,0,0,1,1.458,0l1.37,1.3,2.916-2.772a1.071,1.071,0,0,1,1.458,0A0.948,0.948,0,0,1,12.1,8.511Zm2.066-8.268H2.833A2.516,2.516,0,0,0,.257,2.692V22.279A1.556,1.556,0,0,0,2.9,23.322l4.513-4.29a1.6,1.6,0,0,1,2.184,0l4.513,4.29a1.556,1.556,0,0,0,2.638-1.043V2.692A2.516,2.516,0,0,0,14.167.243Z"/>
</svg>
