<svg xmlns="http://www.w3.org/2000/svg" width="32" height="48.005" viewBox="0 0 32 48.005">
  <defs>
    <style>
      .cls-1 {
        fill: #acb6ca;
      }
    </style>
  </defs>
  <path id="Compound_Shape" data-name="Compound Shape" class="cls-1" d="M1321.49,333.378l-7.08,7.07a1.979,1.979,0,0,1-2.82,0l-4.08-4.07a2,2,0,0,1,2.83-2.83l2.66,2.66,5.66-5.66a2,2,0,1,1,2.83,2.83Zm4.01-16.881h-22a5,5,0,0,0-5,5v39.989a3,3,0,0,0,5.12,2.131l8.76-8.761a3,3,0,0,1,4.24,0l8.76,8.761a3,3,0,0,0,5.12-2.131V321.5A5,5,0,0,0,1325.5,316.5Z" transform="translate(-1298.5 -316.497)"/>
</svg>
