<svg xmlns="http://www.w3.org/2000/svg" xmlns:xlink="http://www.w3.org/1999/xlink" width="40" height="44" viewBox="0 0 40 44">
  <metadata><?xpacket begin="﻿" id="W5M0MpCehiHzreSzNTczkc9d"?>
<x:xmpmeta xmlns:x="adobe:ns:meta/" x:xmptk="Adobe XMP Core 5.6-c138 79.159824, 2016/09/14-01:09:01        ">
   <rdf:RDF xmlns:rdf="http://www.w3.org/1999/02/22-rdf-syntax-ns#">
      <rdf:Description rdf:about=""/>
   </rdf:RDF>
</x:xmpmeta>
                                                                                                    
                                                                                                    
                                                                                                    
                                                                                                    
                                                                                                    
                                                                                                    
                                                                                                    
                                                                                                    
                                                                                                    
                                                                                                    
                                                                                                    
                                                                                                    
                                                                                                    
                                                                                                    
                                                                                                    
                                                                                                    
                                                                                                    
                                                                                                    
                                                                                                    
                                                                                                    
                           
<?xpacket end="w"?></metadata>
<defs>
    <style>
      .cls-1 {
        fill: #d3d4ed;
        fill-rule: evenodd;
        filter: url(#filter);
      }
    </style>
    <filter id="filter" x="3974" y="319" width="40" height="44" filterUnits="userSpaceOnUse">
      <feFlood result="flood" flood-color="#acb6ca"/>
      <feComposite result="composite" operator="in" in2="SourceGraphic"/>
      <feBlend result="blend" in2="SourceGraphic"/>
    </filter>
  </defs>
  <path id="Compound_Shape" data-name="Compound Shape" class="cls-1" d="M4004,342a2,2,0,0,1-4,0v-5a2,2,0,0,1,4,0v5Zm-8,0a2,2,0,0,1-4,0V332a2,2,0,1,1,4,0v10Zm-8,0a2,2,0,0,1-4,0v-2a2,2,0,1,1,4,0v2Zm21-20h-12.5v-0.5a2.5,2.5,0,0,0-5,0V322H3979a5,5,0,0,0-5,5v20a5,5,0,0,0,5,5h12.5v2.95l-6.62,3.311A2.5,2.5,0,0,0,3986,363a2.483,2.483,0,0,0,1.12-.26l6.88-3.45,6.88,3.45a2.483,2.483,0,0,0,1.12.26,2.5,2.5,0,0,0,1.12-4.739l-6.62-3.311V352H4009a5,5,0,0,0,5-5V327A5,5,0,0,0,4009,322Z" transform="translate(-3974 -319)"/>
</svg>
