<svg xmlns="http://www.w3.org/2000/svg" xmlns:xlink="http://www.w3.org/1999/xlink" width="20" height="23" viewBox="0 0 20 23">
  <metadata><?xpacket begin="﻿" id="W5M0MpCehiHzreSzNTczkc9d"?>
<x:xmpmeta xmlns:x="adobe:ns:meta/" x:xmptk="Adobe XMP Core 5.6-c138 79.159824, 2016/09/14-01:09:01        ">
   <rdf:RDF xmlns:rdf="http://www.w3.org/1999/02/22-rdf-syntax-ns#">
      <rdf:Description rdf:about=""/>
   </rdf:RDF>
</x:xmpmeta>
                                                                                                    
                                                                                                    
                                                                                                    
                                                                                                    
                                                                                                    
                                                                                                    
                                                                                                    
                                                                                                    
                                                                                                    
                                                                                                    
                                                                                                    
                                                                                                    
                                                                                                    
                                                                                                    
                                                                                                    
                                                                                                    
                                                                                                    
                                                                                                    
                                                                                                    
                                                                                                    
                           
<?xpacket end="w"?></metadata>
<defs>
    <style>
      .cls-1 {
        fill: #d3d4ed;
        fill-rule: evenodd;
        filter: url(#filter);
      }
    </style>
    <filter id="filter" x="0" y="0.5" width="20" height="22" filterUnits="userSpaceOnUse">
      <feFlood result="flood" flood-color="#36b8ff"/>
      <feComposite result="composite" operator="in" in2="SourceGraphic"/>
      <feBlend result="blend" in2="SourceGraphic"/>
    </filter>
  </defs>
  <path id="Compound_Shape" data-name="Compound Shape" class="cls-1" d="M15,12.008a1,1,0,1,1-2,0v-2.5a1,1,0,0,1,2,0v2.5Zm-4,0a1,1,0,1,1-2,0v-5a1,1,0,1,1,2,0v5Zm-4,0a1,1,0,1,1-2,0v-1a1,1,0,1,1,2,0v1Zm10.5-10H11.25V1.758a1.25,1.25,0,0,0-2.5,0v0.25H2.5A2.5,2.5,0,0,0,0,4.509v10a2.5,2.5,0,0,0,2.5,2.5H8.75v1.475L5.44,20.14A1.25,1.25,0,0,0,6,22.509a1.241,1.241,0,0,0,.56-0.13L10,20.654l3.44,1.725a1.241,1.241,0,0,0,.56.13,1.25,1.25,0,0,0,.56-2.369l-3.31-1.656V17.009H17.5a2.5,2.5,0,0,0,2.5-2.5v-10A2.5,2.5,0,0,0,17.5,2.008Z"/>
</svg>
