<svg xmlns="http://www.w3.org/2000/svg" width="36" height="48.001" viewBox="0 0 36 48.001">
  <defs>
    <style>
      .cls-1 {
        fill: #d3d4ed;
      }

      .cls-2 {
        fill: #acb6ca;
      }
    </style>
  </defs>
  <g id="_39_Menu" data-name="39 Menu" transform="translate(-671.5 -316.497)">
    <g id="_39_Menu-2" data-name="39 Menu">
      <path id="Compound_Shape" data-name="Compound Shape" class="cls-1" d="M702.09,333.5H695.5a5,5,0,0,1-5-5v-6.59a1,1,0,0,1,1.71-.7l10.58,10.581A1,1,0,0,1,702.09,333.5Zm-6.59,21h-12a2,2,0,1,1,0-4h12a2,2,0,1,1,0,4Zm-12-13h7a2,2,0,1,1,0,4h-7a2,2,0,1,1,0-4Zm22.54-12.461-11.08-11.079a4.994,4.994,0,0,0-3.53-1.461H676.5a5,5,0,0,0-5,5v38a5,5,0,0,0,5,5h26a5,5,0,0,0,5-5v-26.93A5,5,0,0,0,706.04,329.037Z"/>
    </g>
    <path id="Color_Overlay" data-name="Color Overlay" class="cls-2" d="M702.09,333.5H695.5a5,5,0,0,1-5-5v-6.59a1,1,0,0,1,1.71-.7l10.58,10.581A1,1,0,0,1,702.09,333.5Zm-6.59,21h-12a2,2,0,1,1,0-4h12a2,2,0,1,1,0,4Zm-12-13h7a2,2,0,1,1,0,4h-7a2,2,0,1,1,0-4Zm22.54-12.461-11.08-11.079a4.994,4.994,0,0,0-3.53-1.461H676.5a5,5,0,0,0-5,5v38a5,5,0,0,0,5,5h26a5,5,0,0,0,5-5v-26.93A5,5,0,0,0,706.04,329.037Z"/>
  </g>
</svg>
