<svg xmlns="http://www.w3.org/2000/svg" xmlns:xlink="http://www.w3.org/1999/xlink" width="19" height="25" viewBox="0 0 19 25">
  <metadata><?xpacket begin="﻿" id="W5M0MpCehiHzreSzNTczkc9d"?>
<x:xmpmeta xmlns:x="adobe:ns:meta/" x:xmptk="Adobe XMP Core 5.6-c138 79.159824, 2016/09/14-01:09:01        ">
   <rdf:RDF xmlns:rdf="http://www.w3.org/1999/02/22-rdf-syntax-ns#">
      <rdf:Description rdf:about=""/>
   </rdf:RDF>
</x:xmpmeta>
                                                                                                    
                                                                                                    
                                                                                                    
                                                                                                    
                                                                                                    
                                                                                                    
                                                                                                    
                                                                                                    
                                                                                                    
                                                                                                    
                                                                                                    
                                                                                                    
                                                                                                    
                                                                                                    
                                                                                                    
                                                                                                    
                                                                                                    
                                                                                                    
                                                                                                    
                                                                                                    
                           
<?xpacket end="w"?></metadata>
<defs>
    <style>
      .cls-1 {
        fill: #d3d4ed;
        fill-rule: evenodd;
        filter: url(#filter);
      }
    </style>
    <filter id="filter" x="0.75" y="0.25" width="18" height="24" filterUnits="userSpaceOnUse">
      <feFlood result="flood" flood-color="#acb6ca"/>
      <feComposite result="composite" operator="in" in2="SourceGraphic"/>
      <feBlend result="blend" in2="SourceGraphic"/>
    </filter>
  </defs>
  <path id="Compound_Shape" data-name="Compound Shape" class="cls-1" d="M16.045,8.758H12.75a2.5,2.5,0,0,1-2.5-2.5V2.963A0.5,0.5,0,0,1,11.1,2.612L16.395,7.9A0.5,0.5,0,0,1,16.045,8.758Zm-3.295,10.5h-6a1,1,0,1,1,0-2h6A1,1,0,1,1,12.75,19.259Zm-6-6.5h3.5a1,1,0,1,1,0,2H6.75A1,1,0,1,1,6.75,12.759ZM18.02,6.527l-5.54-5.54a2.5,2.5,0,0,0-1.765-.73H3.25a2.5,2.5,0,0,0-2.5,2.5v19a2.5,2.5,0,0,0,2.5,2.5h13a2.5,2.5,0,0,0,2.5-2.5V8.293A2.5,2.5,0,0,0,18.02,6.527Z"/>
</svg>
