<svg xmlns="http://www.w3.org/2000/svg" xmlns:xlink="http://www.w3.org/1999/xlink" width="18" height="24" viewBox="0 0 18 24">
  <metadata><?xpacket begin="﻿" id="W5M0MpCehiHzreSzNTczkc9d"?>
<x:xmpmeta xmlns:x="adobe:ns:meta/" x:xmptk="Adobe XMP Core 5.6-c138 79.159824, 2016/09/14-01:09:01        ">
   <rdf:RDF xmlns:rdf="http://www.w3.org/1999/02/22-rdf-syntax-ns#">
      <rdf:Description rdf:about=""/>
   </rdf:RDF>
</x:xmpmeta>
                                                                                                    
                                                                                                    
                                                                                                    
                                                                                                    
                                                                                                    
                                                                                                    
                                                                                                    
                                                                                                    
                                                                                                    
                                                                                                    
                                                                                                    
                                                                                                    
                                                                                                    
                                                                                                    
                                                                                                    
                                                                                                    
                                                                                                    
                                                                                                    
                                                                                                    
                                                                                                    
                           
<?xpacket end="w"?></metadata>
<defs>
    <style>
      .cls-1 {
        fill: #d3d4ed;
        fill-rule: evenodd;
        filter: url(#filter);
      }
    </style>
    <filter id="filter" x="0.25" y="0.25" width="17.5" height="23.5" filterUnits="userSpaceOnUse">
      <feFlood result="flood" flood-color="#36b8ff"/>
      <feComposite result="composite" operator="in" in2="SourceGraphic"/>
      <feBlend result="blend" in2="SourceGraphic"/>
    </filter>
  </defs>
  <path id="Compound_Shape" data-name="Compound Shape" class="cls-1" d="M15.125,8.57H11.919A2.442,2.442,0,0,1,9.486,6.121V2.894a0.487,0.487,0,0,1,.832-0.344l5.147,5.183A0.49,0.49,0,0,1,15.125,8.57ZM11.919,18.856H6.081a0.979,0.979,0,0,1,0-1.959h5.838A0.979,0.979,0,0,1,11.919,18.856ZM6.081,12.489H9.486a0.979,0.979,0,0,1,0,1.959H6.081A0.979,0.979,0,0,1,6.081,12.489Zm10.965-6.1-5.39-5.426A2.422,2.422,0,0,0,9.939.243H2.676A2.442,2.442,0,0,0,.243,2.692V21.3a2.442,2.442,0,0,0,2.433,2.449H15.324A2.442,2.442,0,0,0,17.757,21.3V8.114A2.458,2.458,0,0,0,17.046,6.385Z"/>
</svg>
