<svg xmlns="http://www.w3.org/2000/svg" xmlns:xlink="http://www.w3.org/1999/xlink" width="42" height="42" viewBox="0 0 42 42">
  <metadata><?xpacket begin="﻿" id="W5M0MpCehiHzreSzNTczkc9d"?>
<x:xmpmeta xmlns:x="adobe:ns:meta/" x:xmptk="Adobe XMP Core 5.6-c138 79.159824, 2016/09/14-01:09:01        ">
   <rdf:RDF xmlns:rdf="http://www.w3.org/1999/02/22-rdf-syntax-ns#">
      <rdf:Description rdf:about=""/>
   </rdf:RDF>
</x:xmpmeta>
                                                                                                    
                                                                                                    
                                                                                                    
                                                                                                    
                                                                                                    
                                                                                                    
                                                                                                    
                                                                                                    
                                                                                                    
                                                                                                    
                                                                                                    
                                                                                                    
                                                                                                    
                                                                                                    
                                                                                                    
                                                                                                    
                                                                                                    
                                                                                                    
                                                                                                    
                                                                                                    
                           
<?xpacket end="w"?></metadata>
<defs>
    <style>
      .cls-1 {
        fill: #d3d4ed;
        fill-rule: evenodd;
        filter: url(#filter);
      }
    </style>
    <filter id="filter" x="3279" y="320" width="42" height="42" filterUnits="userSpaceOnUse">
      <feFlood result="flood" flood-color="#acb6ca"/>
      <feComposite result="composite" operator="in" in2="SourceGraphic"/>
      <feBlend result="blend" in2="SourceGraphic"/>
    </filter>
  </defs>
  <path id="Compound_Shape" data-name="Compound Shape" class="cls-1" d="M3309.39,352h-13.78a2.975,2.975,0,0,1-2.97-3.45c0.79-4.28,4.9-7.55,9.86-7.55s9.07,3.27,9.86,7.55A2.975,2.975,0,0,1,3309.39,352Zm-6.89-22a4.5,4.5,0,1,1-4.5,4.5A4.495,4.495,0,0,1,3302.5,330Zm13.5-10h-27a5,5,0,0,0-5,5v2h-2a3,3,0,0,0,0,6h2v5h-2a3,3,0,0,0,0,6h2v5h-2a3,3,0,0,0,0,6h2v2a5,5,0,0,0,5,5h27a5,5,0,0,0,5-5V325A5,5,0,0,0,3316,320Z" transform="translate(-3279 -320)"/>
</svg>
