<svg xmlns="http://www.w3.org/2000/svg" xmlns:xlink="http://www.w3.org/1999/xlink" width="21" height="21" viewBox="0 0 21 21">
  <metadata><?xpacket begin="﻿" id="W5M0MpCehiHzreSzNTczkc9d"?>
<x:xmpmeta xmlns:x="adobe:ns:meta/" x:xmptk="Adobe XMP Core 5.6-c138 79.159824, 2016/09/14-01:09:01        ">
   <rdf:RDF xmlns:rdf="http://www.w3.org/1999/02/22-rdf-syntax-ns#">
      <rdf:Description rdf:about=""/>
   </rdf:RDF>
</x:xmpmeta>
                                                                                                    
                                                                                                    
                                                                                                    
                                                                                                    
                                                                                                    
                                                                                                    
                                                                                                    
                                                                                                    
                                                                                                    
                                                                                                    
                                                                                                    
                                                                                                    
                                                                                                    
                                                                                                    
                                                                                                    
                                                                                                    
                                                                                                    
                                                                                                    
                                                                                                    
                                                                                                    
                           
<?xpacket end="w"?></metadata>
<defs>
    <style>
      .cls-1 {
        fill: #d3d4ed;
        fill-rule: evenodd;
        filter: url(#filter);
      }
    </style>
    <filter id="filter" x="0" y="0" width="21" height="21" filterUnits="userSpaceOnUse">
      <feFlood result="flood" flood-color="#acb6ca"/>
      <feComposite result="composite" operator="in" in2="SourceGraphic"/>
      <feBlend result="blend" in2="SourceGraphic"/>
    </filter>
  </defs>
  <path id="Compound_Shape" data-name="Compound Shape" class="cls-1" d="M15.195,16H8.3A1.487,1.487,0,0,1,6.82,14.274,4.882,4.882,0,0,1,11.75,10.5a4.882,4.882,0,0,1,4.93,3.775A1.487,1.487,0,0,1,15.195,16ZM11.75,5A2.25,2.25,0,1,1,9.5,7.249,2.247,2.247,0,0,1,11.75,5ZM18.5,0H5A2.5,2.5,0,0,0,2.5,2.5v1h-1a1.5,1.5,0,1,0,0,3h1V9h-1a1.5,1.5,0,1,0,0,3h1v2.5h-1a1.5,1.5,0,1,0,0,3h1v1A2.5,2.5,0,0,0,5,21H18.5A2.5,2.5,0,0,0,21,18.5V2.5A2.5,2.5,0,0,0,18.5,0Z"/>
</svg>
