<svg xmlns="http://www.w3.org/2000/svg" xmlns:xlink="http://www.w3.org/1999/xlink" width="22" height="21" viewBox="0 0 22 21">
  <metadata><?xpacket begin="﻿" id="W5M0MpCehiHzreSzNTczkc9d"?>
<x:xmpmeta xmlns:x="adobe:ns:meta/" x:xmptk="Adobe XMP Core 5.6-c138 79.159824, 2016/09/14-01:09:01        ">
   <rdf:RDF xmlns:rdf="http://www.w3.org/1999/02/22-rdf-syntax-ns#">
      <rdf:Description rdf:about=""/>
   </rdf:RDF>
</x:xmpmeta>
                                                                                                    
                                                                                                    
                                                                                                    
                                                                                                    
                                                                                                    
                                                                                                    
                                                                                                    
                                                                                                    
                                                                                                    
                                                                                                    
                                                                                                    
                                                                                                    
                                                                                                    
                                                                                                    
                                                                                                    
                                                                                                    
                                                                                                    
                                                                                                    
                                                                                                    
                                                                                                    
                           
<?xpacket end="w"?></metadata>
<defs>
    <style>
      .cls-1 {
        fill: #d3d4ed;
        fill-rule: evenodd;
        filter: url(#filter);
      }
    </style>
    <filter id="filter" x="0.5" y="0" width="21" height="21" filterUnits="userSpaceOnUse">
      <feFlood result="flood" flood-color="#36b8ff"/>
      <feComposite result="composite" operator="in" in2="SourceGraphic"/>
      <feBlend result="blend" in2="SourceGraphic"/>
    </filter>
  </defs>
  <path id="Compound_Shape" data-name="Compound Shape" class="cls-1" d="M15.695,16.009H8.8A1.488,1.488,0,0,1,7.32,14.284a4.882,4.882,0,0,1,4.93-3.775,4.883,4.883,0,0,1,4.93,3.775A1.488,1.488,0,0,1,15.695,16.009Zm-3.445-11A2.25,2.25,0,1,1,10,7.259,2.247,2.247,0,0,1,12.25,5.009Zm6.75-5H5.5A2.5,2.5,0,0,0,3,2.509v1H2a1.5,1.5,0,0,0,0,3H3v2.5H2a1.5,1.5,0,0,0,0,3H3v2.5H2a1.5,1.5,0,0,0,0,3H3v1a2.5,2.5,0,0,0,2.5,2.5H19a2.5,2.5,0,0,0,2.5-2.5v-16A2.5,2.5,0,0,0,19,.008Z"/>
</svg>
